{
  "accessors": [
    {
      "bufferView": 2,
      "componentType": 5126,
      "count": 6037,
      "max": [
        0.22996851801872253,
        0.4813558757305145,
        0.22996844351291656
      ],
      "min": [
        -0.22996851801872253,
        0.0,
        -0.22996844351291656
      ],
      "type": "VEC3"
    },
    {
      "bufferView": 2,
      "byteOffset": 72444,
      "componentType": 5126,
      "count": 6037,
      "max": [
        1.0,
        1.0,
        1.0
      ],
      "min": [
        -1.0,
        -1.0,
        -1.0
      ],
      "type": "VEC3"
    },
    {
      "bufferView": 3,
      "componentType": 5126,
      "count": 6037,
      "max": [
        1.0,
        1.0,
        1.0,
        1.0
      ],
      "min": [
        -1.0,
        -1.0,
        -1.0,
        -1.0
      ],
      "type": "VEC4"
    },
    {
      "bufferView": 1,
      "componentType": 5126,
      "count": 6037,
      "max": [
        0.9962486624717712,
        0.996429979801178
      ],
      "min": [
        0.0035666399635374546,
        0.003578662872314453
      ],
      "type": "VEC2"
    },
    {
      "bufferView": 1,
      "byteOffset": 48296,
      "componentType": 5126,
      "count": 6037,
      "max": [
        0.9962486624717712,
        0.996429979801178
      ],
      "min": [
        0.0035666399635374546,
        0.003578662872314453
      ],
      "type": "VEC2"
    },
    {
      "bufferView": 1,
      "byteOffset": 96592,
      "componentType": 5126,
      "count": 6037,
      "max": [
        0.9962486624717712,
        0.996429979801178
      ],
      "min": [
        0.0035666399635374546,
        0.003578662872314453
      ],
      "type": "VEC2"
    },
    {
      "bufferView": 1,
      "byteOffset": 144888,
      "componentType": 5126,
      "count": 6037,
      "max": [
        0.9962486624717712,
        0.996429979801178
      ],
      "min": [
        0.0035666399635374546,
        0.003578662872314453
      ],
      "type": "VEC2"
    },
    {
      "bufferView": 1,
      "byteOffset": 193184,
      "componentType": 5126,
      "count": 6037,
      "max": [
        0.9962486624717712,
        0.996429979801178
      ],
      "min": [
        0.0035666399635374546,
        0.003578662872314453
      ],
      "type": "VEC2"
    },
    {
      "bufferView": 0,
      "componentType": 5125,
      "count": 14982,
      "type": "SCALAR"
    }
  ],
  "asset": {
    "extras": {
      "author": "tegnemaskin (https://sketchfab.com/tegnemaskin)",
      "license": "CC-BY-4.0 (http://creativecommons.org/licenses/by/4.0/)",
      "source": "https://sketchfab.com/3d-models/star-wars-cube-crate-s-4b40fd97b3cb4b68a7b4b18b02b3ec6a",
      "title": "Star Wars Cube Crate S"
    },
    "generator": "Sketchfab-15.37.0",
    "version": "2.0"
  },
  "bufferViews": [
    {
      "buffer": 0,
      "byteLength": 59928,
      "name": "floatBufferViews",
      "target": 34963
    },
    {
      "buffer": 0,
      "byteLength": 241480,
      "byteOffset": 59928,
      "byteStride": 8,
      "name": "floatBufferViews",
      "target": 34962
    },
    {
      "buffer": 0,
      "byteLength": 144888,
      "byteOffset": 301408,
      "byteStride": 12,
      "name": "floatBufferViews",
      "target": 34962
    },
    {
      "buffer": 0,
      "byteLength": 96592,
      "byteOffset": 446296,
      "byteStride": 16,
      "name": "floatBufferViews",
      "target": 34962
    }
  ],
  "buffers": [
    {
      "byteLength": 542888,
      "uri": "scene.bin"
    }
  ],
  "images": [
    {
      "uri": "textures/atlas-cube-s_Baked_baseColor.jpeg"
    },
    {
      "uri": "textures/atlas-cube-s_Baked_metallicRoughness.png"
    },
    {
      "uri": "textures/atlas-cube-s_Baked_emissive.jpeg"
    },
    {
      "uri": "textures/atlas-cube-s_Baked_normal.png"
    }
  ],
  "materials": [
    {
      "doubleSided": true,
      "emissiveFactor": [
        1.0,
        1.0,
        1.0
      ],
      "emissiveTexture": {
        "index": 2,
        "texCoord": 2
      },
      "name": "atlas-cube-s_Baked",
      "normalTexture": {
        "index": 3,
        "texCoord": 3
      },
      "pbrMetallicRoughness": {
        "baseColorTexture": {
          "index": 0
        },
        "metallicRoughnessTexture": {
          "index": 1,
          "texCoord": 1
        }
      }
    }
  ],
  "meshes": [
    {
      "name": "Object_0",
      "primitives": [
        {
          "attributes": {
            "NORMAL": 1,
            "POSITION": 0,
            "TANGENT": 2,
            "TEXCOORD_0": 3,
            "TEXCOORD_1": 4,
            "TEXCOORD_2": 5,
            "TEXCOORD_3": 6,
            "TEXCOORD_4": 7
          },
          "indices": 8,
          "material": 0,
          "mode": 4
        }
      ]
    }
  ],
  "nodes": [
    {
      "children": [
        1
      ],
      "matrix": [
        1.0,
        0.0,
        0.0,
        0.0,
        0.0,
        2.220446049250313e-16,
        -1.0,
        0.0,
        0.0,
        1.0,
        2.220446049250313e-16,
        0.0,
        0.0,
        0.0,
        0.0,
        1.0
      ],
      "name": "Sketchfab_model"
    },
    {
      "children": [
        2
      ],
      "name": "root"
    },
    {
      "children": [
        3
      ],
      "matrix": [
        1.0,
        0.0,
        0.0,
        0.0,
        0.0,
        2.220446049250313e-16,
        1.0,
        0.0,
        0.0,
        -1.0,
        2.220446049250313e-16,
        0.0,
        0.0,
        0.0,
        0.0,
        1.0
      ],
      "name": "GLTF_SceneRootNode"
    },
    {
      "children": [
        4
      ],
      "matrix": [
        1.0,
        0.0,
        0.0,
        0.0,
        0.0,
        1.0,
        0.0,
        0.0,
        0.0,
        0.0,
        1.0,
        0.0,
        -0.026772499084472656,
        0.0,
        0.07529830932617188,
        1.0
      ],
      "name": "crate-cube-s_0"
    },
    {
      "mesh": 0,
      "name": "Object_4"
    }
  ],
  "samplers": [
    {
      "magFilter": 9729,
      "minFilter": 9987,
      "wrapS": 10497,
      "wrapT": 10497
    }
  ],
  "scene": 0,
  "scenes": [
    {
      "name": "Sketchfab_Scene",
      "nodes": [
        0
      ]
    }
  ],
  "textures": [
    {
      "sampler": 0,
      "source": 0
    },
    {
      "sampler": 0,
      "source": 1
    },
    {
      "sampler": 0,
      "source": 2
    },
    {
      "sampler": 0,
      "source": 3
    }
  ]
}
